<mxfile host="Electron" modified="2024-04-07T11:08:51.351Z" agent="Mozilla/5.0 (Macintosh; Intel Mac OS X 10_15_7) AppleWebKit/537.36 (KHTML, like Gecko) draw.io/24.1.0 Chrome/120.0.6099.109 Electron/28.1.0 Safari/537.36" version="24.1.0" etag="raLFFWTd2EZLpo7gnWQZ" type="device">
  <diagram id="hchQVulWyjQtPE29ryah" name="Page-1">
    <mxGraphModel dx="955" dy="663" grid="1" gridSize="10" guides="1" tooltips="1" connect="1" arrows="1" fold="1" page="1" pageScale="1" pageWidth="827" pageHeight="1169" math="0" shadow="0">
      <root>
        <mxCell id="0" />
        <mxCell id="1" parent="0" />
        <mxCell id="RweY4RriQUR_QzPmjUeY-1" value="vpc1" style="points=[[0,0],[0.25,0],[0.5,0],[0.75,0],[1,0],[1,0.25],[1,0.5],[1,0.75],[1,1],[0.75,1],[0.5,1],[0.25,1],[0,1],[0,0.75],[0,0.5],[0,0.25]];outlineConnect=0;gradientColor=none;html=1;whiteSpace=wrap;fontSize=12;fontStyle=0;container=1;pointerEvents=0;collapsible=0;recursiveResize=0;shape=mxgraph.aws4.group;grIcon=mxgraph.aws4.group_vpc2;strokeColor=#8C4FFF;fillColor=none;verticalAlign=top;align=left;spacingLeft=30;fontColor=#AAB7B8;dashed=0;" vertex="1" parent="1">
          <mxGeometry x="70" y="150" width="300" height="230" as="geometry" />
        </mxCell>
        <mxCell id="RweY4RriQUR_QzPmjUeY-16" style="edgeStyle=orthogonalEdgeStyle;rounded=0;orthogonalLoop=1;jettySize=auto;html=1;exitX=1;exitY=0.5;exitDx=0;exitDy=0;exitPerimeter=0;" edge="1" parent="RweY4RriQUR_QzPmjUeY-1" source="RweY4RriQUR_QzPmjUeY-10" target="RweY4RriQUR_QzPmjUeY-11">
          <mxGeometry relative="1" as="geometry">
            <Array as="points">
              <mxPoint x="150" y="73" />
              <mxPoint x="150" y="205" />
            </Array>
          </mxGeometry>
        </mxCell>
        <mxCell id="RweY4RriQUR_QzPmjUeY-10" value="Test EC2" style="outlineConnect=0;dashed=0;verticalLabelPosition=bottom;verticalAlign=top;align=center;html=1;shape=mxgraph.aws3.ec2;fillColor=#F58534;gradientColor=none;" vertex="1" parent="RweY4RriQUR_QzPmjUeY-1">
          <mxGeometry x="70" y="40" width="60" height="66.5" as="geometry" />
        </mxCell>
        <mxCell id="RweY4RriQUR_QzPmjUeY-11" value="VPC Endpoint" style="sketch=0;outlineConnect=0;fontColor=#FFFFFF;gradientColor=none;fillColor=#8C4FFF;strokeColor=none;dashed=0;verticalLabelPosition=bottom;verticalAlign=top;align=center;html=1;fontSize=12;fontStyle=0;aspect=fixed;pointerEvents=1;shape=mxgraph.aws4.endpoints;" vertex="1" parent="RweY4RriQUR_QzPmjUeY-1">
          <mxGeometry x="240" y="180" width="50" height="50" as="geometry" />
        </mxCell>
        <mxCell id="RweY4RriQUR_QzPmjUeY-17" value="Internet gateway" style="sketch=0;outlineConnect=0;fontColor=#FFFFFF;gradientColor=none;fillColor=#8C4FFF;strokeColor=none;dashed=0;verticalLabelPosition=bottom;verticalAlign=top;align=center;html=1;fontSize=12;fontStyle=0;aspect=fixed;pointerEvents=1;shape=mxgraph.aws4.internet_gateway;" vertex="1" parent="RweY4RriQUR_QzPmjUeY-1">
          <mxGeometry y="180" width="50" height="50" as="geometry" />
        </mxCell>
        <mxCell id="RweY4RriQUR_QzPmjUeY-25" value="curl http://...." style="text;html=1;align=left;verticalAlign=middle;whiteSpace=wrap;rounded=0;labelBackgroundColor=#443d4d;fontFamily=Courier New;" vertex="1" parent="RweY4RriQUR_QzPmjUeY-1">
          <mxGeometry x="150" y="100" width="150" height="50" as="geometry" />
        </mxCell>
        <mxCell id="RweY4RriQUR_QzPmjUeY-2" value="vpc2" style="points=[[0,0],[0.25,0],[0.5,0],[0.75,0],[1,0],[1,0.25],[1,0.5],[1,0.75],[1,1],[0.75,1],[0.5,1],[0.25,1],[0,1],[0,0.75],[0,0.5],[0,0.25]];outlineConnect=0;gradientColor=none;html=1;whiteSpace=wrap;fontSize=12;fontStyle=0;container=1;pointerEvents=0;collapsible=0;recursiveResize=0;shape=mxgraph.aws4.group;grIcon=mxgraph.aws4.group_vpc2;strokeColor=#8C4FFF;fillColor=none;verticalAlign=top;align=left;spacingLeft=30;fontColor=#AAB7B8;dashed=0;" vertex="1" parent="1">
          <mxGeometry x="480" y="150" width="340" height="230" as="geometry" />
        </mxCell>
        <mxCell id="RweY4RriQUR_QzPmjUeY-8" style="edgeStyle=orthogonalEdgeStyle;rounded=0;orthogonalLoop=1;jettySize=auto;html=1;" edge="1" parent="RweY4RriQUR_QzPmjUeY-2" source="RweY4RriQUR_QzPmjUeY-6" target="RweY4RriQUR_QzPmjUeY-7">
          <mxGeometry relative="1" as="geometry" />
        </mxCell>
        <mxCell id="RweY4RriQUR_QzPmjUeY-6" value="Network Load Balancer" style="sketch=0;outlineConnect=0;fontColor=#FFFFFF;gradientColor=none;fillColor=#8C4FFF;strokeColor=none;dashed=0;verticalLabelPosition=bottom;verticalAlign=top;align=center;html=1;fontSize=12;fontStyle=0;aspect=fixed;pointerEvents=1;shape=mxgraph.aws4.network_load_balancer;" vertex="1" parent="RweY4RriQUR_QzPmjUeY-2">
          <mxGeometry x="70" y="40" width="59" height="59" as="geometry" />
        </mxCell>
        <mxCell id="RweY4RriQUR_QzPmjUeY-7" value="Application Load Balancer" style="sketch=0;outlineConnect=0;fontColor=#FFFFFF;gradientColor=none;fillColor=#8C4FFF;strokeColor=none;dashed=0;verticalLabelPosition=bottom;verticalAlign=top;align=center;html=1;fontSize=12;fontStyle=0;aspect=fixed;pointerEvents=1;shape=mxgraph.aws4.application_load_balancer;" vertex="1" parent="RweY4RriQUR_QzPmjUeY-2">
          <mxGeometry x="220" y="40" width="59" height="59" as="geometry" />
        </mxCell>
        <mxCell id="RweY4RriQUR_QzPmjUeY-14" style="edgeStyle=orthogonalEdgeStyle;rounded=0;orthogonalLoop=1;jettySize=auto;html=1;" edge="1" parent="RweY4RriQUR_QzPmjUeY-2" source="RweY4RriQUR_QzPmjUeY-12" target="RweY4RriQUR_QzPmjUeY-6">
          <mxGeometry relative="1" as="geometry">
            <Array as="points">
              <mxPoint x="25" y="70" />
            </Array>
          </mxGeometry>
        </mxCell>
        <mxCell id="RweY4RriQUR_QzPmjUeY-12" value="VPC Endpoint Service" style="sketch=0;outlineConnect=0;fontColor=#FFFFFF;gradientColor=none;fillColor=#8C4FFF;strokeColor=none;dashed=0;verticalLabelPosition=bottom;verticalAlign=top;align=center;html=1;fontSize=12;fontStyle=0;aspect=fixed;pointerEvents=1;shape=mxgraph.aws4.endpoints;" vertex="1" parent="RweY4RriQUR_QzPmjUeY-2">
          <mxGeometry y="180" width="50" height="50" as="geometry" />
        </mxCell>
        <mxCell id="RweY4RriQUR_QzPmjUeY-15" value="Fixed response:&lt;pre&gt;status: 200&lt;br&gt;body: &#39;pong&#39;&lt;/pre&gt;" style="text;html=1;align=left;verticalAlign=middle;whiteSpace=wrap;rounded=0;labelBackgroundColor=#443d4d;" vertex="1" parent="RweY4RriQUR_QzPmjUeY-2">
          <mxGeometry x="210" y="150" width="108.5" height="50" as="geometry" />
        </mxCell>
        <mxCell id="RweY4RriQUR_QzPmjUeY-4" value="Consumer VPC" style="text;html=1;align=center;verticalAlign=middle;whiteSpace=wrap;rounded=0;" vertex="1" parent="1">
          <mxGeometry x="167.5" y="110" width="95" height="30" as="geometry" />
        </mxCell>
        <mxCell id="RweY4RriQUR_QzPmjUeY-5" value="Service provider VPC" style="text;html=1;align=center;verticalAlign=middle;whiteSpace=wrap;rounded=0;" vertex="1" parent="1">
          <mxGeometry x="586.25" y="110" width="127.5" height="30" as="geometry" />
        </mxCell>
        <mxCell id="RweY4RriQUR_QzPmjUeY-13" style="edgeStyle=orthogonalEdgeStyle;rounded=0;orthogonalLoop=1;jettySize=auto;html=1;" edge="1" parent="1" source="RweY4RriQUR_QzPmjUeY-11" target="RweY4RriQUR_QzPmjUeY-12">
          <mxGeometry relative="1" as="geometry" />
        </mxCell>
        <mxCell id="RweY4RriQUR_QzPmjUeY-19" value="User" style="shape=umlActor;verticalLabelPosition=bottom;verticalAlign=top;html=1;outlineConnect=0;" vertex="1" parent="1">
          <mxGeometry x="10" y="193" width="30" height="60" as="geometry" />
        </mxCell>
        <mxCell id="RweY4RriQUR_QzPmjUeY-22" style="edgeStyle=orthogonalEdgeStyle;rounded=0;orthogonalLoop=1;jettySize=auto;html=1;entryX=0;entryY=0.5;entryDx=0;entryDy=0;entryPerimeter=0;" edge="1" parent="1" source="RweY4RriQUR_QzPmjUeY-19" target="RweY4RriQUR_QzPmjUeY-10">
          <mxGeometry relative="1" as="geometry" />
        </mxCell>
        <mxCell id="RweY4RriQUR_QzPmjUeY-23" value="SSH" style="edgeLabel;html=1;align=center;verticalAlign=middle;resizable=0;points=[];" vertex="1" connectable="0" parent="RweY4RriQUR_QzPmjUeY-22">
          <mxGeometry x="0.3818" y="-3" relative="1" as="geometry">
            <mxPoint x="-19" y="4" as="offset" />
          </mxGeometry>
        </mxCell>
      </root>
    </mxGraphModel>
  </diagram>
</mxfile>
